<?xml version="1.0" encoding="UTF-8" standalone="no"?>
<svg
   viewBox="0 0 64 64"
   version="1.1"
   id="svg1"
   sodipodi:docname="favicon.svg"
   inkscape:version="1.4.4 (dcaf3e7d9e, 2026-05-05)"
   inkscape:export-filename="favicon.png"
   inkscape:export-xdpi="96"
   inkscape:export-ydpi="96"
   xmlns:inkscape="http://www.inkscape.org/namespaces/inkscape"
   xmlns:sodipodi="http://sodipodi.sourceforge.net/DTD/sodipodi-0.dtd"
   xmlns="http://www.w3.org/2000/svg"
   xmlns:svg="http://www.w3.org/2000/svg">
  <defs
     id="defs1" />
  <sodipodi:namedview
     id="namedview1"
     pagecolor="#ffffff"
     bordercolor="#000000"
     borderopacity="0.25"
     inkscape:showpageshadow="2"
     inkscape:pageopacity="0.0"
     inkscape:pagecheckerboard="0"
     inkscape:deskcolor="#d1d1d1"
     inkscape:zoom="8.9921876"
     inkscape:cx="-6.0052128"
     inkscape:cy="17.904431"
     inkscape:window-width="3440"
     inkscape:window-height="1359"
     inkscape:window-x="0"
     inkscape:window-y="0"
     inkscape:window-maximized="1"
     inkscape:current-layer="svg1" />
  <g
     inkscape:groupmode="layer"
     id="layer1"
     inkscape:label="Shadow"
     transform="matrix(1.3125,0,0,1.3125,-10,-13.558947)">
    <path
       id="path1"
       style="fill:#071a18;fill-opacity:1;stroke:none;stroke-width:0.981181"
       d="m 46.119229,40.30237 -8.332828,-8.950074 18.594551,-5.246595 z m -28.238458,0 8.332828,-8.950074 -18.5945514,-5.246595 z" />
    <path
       id="path3"
       style="fill:#071a18;fill-opacity:1;stroke-width:0.424762"
       d="M 32,26.1057 A 10.82735,13.064272 0 0 1 42.827351,39.169971 10.82735,13.064272 0 0 1 32,52.234242 10.82735,13.064272 0 0 1 21.172649,39.169971 10.82735,13.064272 0 0 1 32,26.1057 Z M 47.962317,41.406893 A 15.962317,10.82735 0 0 1 32,52.234243 15.962317,10.82735 0 0 1 16.037683,41.406893 15.962317,10.82735 0 0 1 32,30.57954 15.962317,10.82735 0 0 1 47.962317,41.406893 Z"
       inkscape:label="path1" />
  </g>
  <path
     id="path2"
     style="fill:#23c4a8;fill-opacity:1;stroke:none;stroke-width:0.981181"
     d="M 46.119228,40.234904 37.786401,31.28483 56.380952,26.038233 Z m -28.238457,0 8.332828,-8.950074 -18.5945514,-5.246597 z" />
  <path
     id="circle1-2"
     style="fill:#23c4a8;stroke-width:0.424762"
     d="M 32,26.038233 A 10.82735,13.064272 0 0 1 42.82735,39.102504 10.82735,13.064272 0 0 1 32,52.166776 10.82735,13.064272 0 0 1 21.172649,39.102504 10.82735,13.064272 0 0 1 32,26.038233 Z M 47.962317,41.339425 A 15.962317,10.82735 0 0 1 32,52.166777 15.962317,10.82735 0 0 1 16.037683,41.339425 15.962317,10.82735 0 0 1 32,30.512074 15.962317,10.82735 0 0 1 47.962317,41.339425 Z"
     inkscape:label="path1" />
  <text
     x="31.926783"
     y="43.805336"
     font-family="'IBM Plex Sans', Arial, sans-serif"
     font-size="17.0234px"
     text-anchor="middle"
     fill="#071a18"
     font-weight="700"
     id="text1"
     style="stroke-width:0.607976">J<tspan
   style="font-size:7.01486px;stroke-width:0.607976"
   id="tspan2">OD</tspan>A</text>
</svg>
