<?xml version="1.0" encoding="UTF-8" standalone="no"?>
<svg
   viewBox="0 0 64 64"
   version="1.1"
   id="svg1"
   sodipodi:docname="favicon.svg"
   inkscape:version="1.4.4 (dcaf3e7d9e, 2026-05-05)"
   inkscape:export-filename="favicon.png"
   inkscape:export-xdpi="96"
   inkscape:export-ydpi="96"
   xmlns:inkscape="http://www.inkscape.org/namespaces/inkscape"
   xmlns:sodipodi="http://sodipodi.sourceforge.net/DTD/sodipodi-0.dtd"
   xmlns="http://www.w3.org/2000/svg"
   xmlns:svg="http://www.w3.org/2000/svg">
  <defs
     id="defs1" />
  <sodipodi:namedview
     id="namedview1"
     pagecolor="#ffffff"
     bordercolor="#000000"
     borderopacity="0.25"
     inkscape:showpageshadow="2"
     inkscape:pageopacity="0.0"
     inkscape:pagecheckerboard="0"
     inkscape:deskcolor="#d1d1d1"
     inkscape:zoom="4"
     inkscape:cx="-85.75"
     inkscape:cy="19.25"
     inkscape:window-width="3440"
     inkscape:window-height="1359"
     inkscape:window-x="0"
     inkscape:window-y="0"
     inkscape:window-maximized="1"
     inkscape:current-layer="svg1" />
  <g
     inkscape:groupmode="layer"
     id="layer1"
     inkscape:label="Shadow"
     transform="matrix(1.3125,0,0,1.3125,-10,-13.558947)"
     style="display:inline">
    <path
       id="path4"
       style="display:inline;fill:#071a18;fill-opacity:1;stroke:none;stroke-width:0.987494"
       d="m 46.210088,39.954679 -8.38645,-9.00767 9.658637,-1.375416 9.055574,-3.904944 -7.401588,9.621534 z m -28.042854,-2.35e-4 8.386451,-9.00767 -9.658637,-1.375416 -9.0555758,-3.904944 7.4015898,9.621535 z"
       inkscape:label="ears" />
    <path
       id="path5"
       style="display:inline;fill:#071a18;fill-opacity:1;stroke-width:0.427496"
       d="M 32,25.666649 A 10.897027,13.148344 0 0 1 42.897027,38.814992 10.897027,13.148344 0 0 1 32,51.963335 10.897027,13.148344 0 0 1 21.102972,38.814992 10.897027,13.148344 0 0 1 32,25.666649 Z M 48.065039,41.066308 A 16.065038,10.897027 0 0 1 32,51.963336 16.065038,10.897027 0 0 1 15.934962,41.066308 16.065038,10.897027 0 0 1 32,30.16928 16.065038,10.897027 0 0 1 48.065039,41.066308 Z"
       inkscape:label="head" />
  </g>
  <path
     id="path2"
     style="display:inline;fill:#23c4a8;fill-opacity:1;stroke:none;stroke-width:0.981181"
     d="M 46.119228,40.234904 37.786401,31.28483 47.38328,29.918208 56.380952,26.038233 49.02669,35.598247 Z M 18.255682,40.234671 26.588509,31.284597 16.99163,29.917975 7.9939576,26.038 15.34822,35.598014 Z"
     inkscape:label="ears" />
  <path
     id="circle1-2"
     style="display:inline;fill:#23c4a8;stroke-width:0.424762"
     d="M 32,26.038233 A 10.82735,13.064272 0 0 1 42.82735,39.102504 10.82735,13.064272 0 0 1 32,52.166776 10.82735,13.064272 0 0 1 21.172649,39.102504 10.82735,13.064272 0 0 1 32,26.038233 Z M 47.962317,41.339425 A 15.962317,10.82735 0 0 1 32,52.166777 15.962317,10.82735 0 0 1 16.037683,41.339425 15.962317,10.82735 0 0 1 32,30.512074 15.962317,10.82735 0 0 1 47.962317,41.339425 Z"
     inkscape:label="head" />
  <text
     x="31.926783"
     y="43.805336"
     font-family="'IBM Plex Sans', Arial, sans-serif"
     font-size="17.0234px"
     text-anchor="middle"
     fill="#071a18"
     font-weight="700"
     id="text1"
     style="display:inline;stroke-width:0.607976">J<tspan
   style="font-size:7.01486px;stroke-width:0.607976"
   id="tspan2">OD</tspan>A</text>
  <path
     id="circle1-2-9"
     style="display:inline;fill:#23c4a8;stroke-width:0.155552"
     d="m 30.626818,35.434996 a 3.9650894,4.7842737 0 0 1 3.96509,4.784274 3.9650894,4.7842737 0 0 1 -3.96509,4.784274 3.9650894,4.7842737 0 0 1 -3.965089,-4.784274 3.9650894,4.7842737 0 0 1 3.965089,-4.784274 z m 5.845569,5.603457 a 5.8455683,3.9650894 0 0 1 -5.845569,3.965091 5.8455683,3.9650894 0 0 1 -5.845568,-3.965091 5.8455683,3.9650894 0 0 1 5.845568,-3.965089 5.8455683,3.9650894 0 0 1 5.845569,3.965089 z"
     inkscape:label="od-hide" />
  <text
     x="30.516697"
     y="45.80994"
     font-family="'IBM Plex Sans', Arial, sans-serif"
     font-size="17.0234px"
     text-anchor="middle"
     fill="#071a18"
     font-weight="700"
     id="text3"
     style="display:inline;stroke-width:0.607976"
     inkscape:label="od"><tspan
       style="font-size:7.01486px;stroke-width:0.607976"
       id="tspan3">OD</tspan></text>
</svg>
